<svg width="270" height="206" viewBox="0 0 270 206" fill="none" xmlns="http://www.w3.org/2000/svg">
<g clip-path="url(#clip0_72_4444)">
<path d="M65.4684 57.7109C65.1537 57.7109 64.839 57.5007 64.7341 57.1503C64.6292 56.7298 64.839 56.3093 65.2586 56.2042C65.7482 56.064 66.2377 55.9239 66.7272 55.7837C67.1468 55.6786 67.5664 55.9239 67.6713 56.3093C67.7762 56.7298 67.5315 57.1503 67.1468 57.2554C66.6573 57.3955 66.1678 57.5357 65.7132 57.6759C65.6083 57.6759 65.5384 57.7109 65.4684 57.7109Z" fill="#F24941"/>
<path d="M161.977 68.8535C161.278 68.8535 160.578 68.8535 159.879 68.8185C159.459 68.8185 159.11 68.4681 159.145 68.0476C159.145 67.6271 159.494 67.2767 159.914 67.3118C160.928 67.3468 161.942 67.3468 162.921 67.3468C163.341 67.3468 163.69 67.6972 163.69 68.1177C163.69 68.5382 163.341 68.8886 162.921 68.8886C162.641 68.8535 162.292 68.8535 161.977 68.8535ZM165.998 68.7484C165.579 68.7484 165.264 68.4331 165.229 68.0126C165.194 67.5921 165.544 67.2417 165.963 67.2067C166.977 67.1716 167.991 67.1015 168.97 66.9964C169.39 66.9614 169.775 67.2767 169.81 67.6972C169.845 68.1177 169.53 68.5031 169.11 68.5382C168.096 68.6083 167.047 68.6783 166.033 68.7484H165.998ZM156.872 68.7134H156.837C155.823 68.6433 154.809 68.5732 153.76 68.4681C153.34 68.433 153.026 68.0476 153.06 67.6271C153.095 67.2066 153.48 66.8913 153.9 66.9263C154.914 67.0315 155.928 67.1015 156.907 67.1716C157.326 67.2066 157.641 67.5571 157.606 67.9775C157.606 68.398 157.257 68.7134 156.872 68.7134ZM172.082 68.2579C171.698 68.2579 171.383 67.9775 171.313 67.5921C171.278 67.1716 171.558 66.7862 171.978 66.7511C172.957 66.646 173.971 66.5059 174.985 66.3307C175.404 66.2606 175.789 66.5409 175.859 66.9614C175.929 67.3819 175.649 67.7673 175.229 67.8374C174.215 67.9775 173.201 68.1527 172.187 68.2579C172.152 68.2579 172.117 68.2579 172.082 68.2579ZM150.788 68.1177C150.753 68.1177 150.718 68.1177 150.683 68.1177C149.704 67.9775 148.655 67.8374 147.641 67.6972C147.221 67.6271 146.941 67.2417 147.011 66.8212C147.081 66.4007 147.466 66.1204 147.885 66.1905C148.899 66.3306 149.913 66.4708 150.893 66.611C151.312 66.6811 151.592 67.0315 151.557 67.4519C151.487 67.8374 151.172 68.1177 150.788 68.1177ZM178.097 67.3118C177.747 67.3118 177.432 67.0665 177.362 66.6811C177.293 66.2606 177.572 65.8751 177.957 65.8051C178.936 65.6299 179.95 65.4196 180.929 65.2094C181.349 65.1043 181.733 65.3846 181.838 65.8051C181.943 66.2255 181.663 66.611 181.244 66.7161C180.23 66.9263 179.216 67.1366 178.237 67.3468C178.202 67.3118 178.167 67.3118 178.097 67.3118ZM144.773 67.2067C144.738 67.2067 144.668 67.2067 144.633 67.2067C143.654 67.0315 142.64 66.8562 141.626 66.646C141.207 66.5759 140.962 66.1555 141.032 65.735C141.102 65.3145 141.521 65.0342 141.941 65.1393C142.955 65.3495 143.969 65.5247 144.913 65.6999C145.333 65.77 145.613 66.1555 145.543 66.5759C145.438 66.9263 145.123 67.2067 144.773 67.2067ZM138.759 66.0153C138.689 66.0153 138.654 66.0153 138.584 65.9803C137.57 65.77 136.591 65.5247 135.612 65.3145C135.192 65.2094 134.948 64.8239 135.053 64.4035C135.157 63.983 135.577 63.7377 135.962 63.8428C136.941 64.0881 137.92 64.2983 138.934 64.5086C139.353 64.6137 139.598 64.9991 139.528 65.4196C139.423 65.77 139.109 66.0153 138.759 66.0153ZM184.076 65.9803C183.726 65.9803 183.412 65.735 183.342 65.4196C183.237 64.9991 183.482 64.5787 183.901 64.4735C184.88 64.2283 185.859 63.9479 186.838 63.6676C187.258 63.5625 187.678 63.7727 187.783 64.1932C187.887 64.6137 187.678 65.0342 187.258 65.1393C186.279 65.4196 185.265 65.6999 184.286 65.9452C184.181 65.9802 184.111 65.9803 184.076 65.9803ZM132.815 64.6137C132.745 64.6137 132.71 64.6137 132.64 64.5787C131.661 64.3334 130.647 64.0881 129.668 63.8428C129.248 63.7377 129.003 63.3172 129.108 62.8967C129.213 62.4763 129.633 62.231 130.052 62.3361C131.031 62.5814 132.01 62.8267 132.99 63.0719C133.409 63.1771 133.654 63.5975 133.549 63.983C133.479 64.3684 133.164 64.6137 132.815 64.6137ZM189.916 64.2983C189.601 64.2983 189.286 64.0881 189.181 63.7727C189.041 63.3873 189.286 62.9318 189.671 62.8267C190.615 62.5113 191.594 62.1959 192.538 61.8455C192.923 61.7054 193.377 61.9156 193.517 62.3011C193.657 62.6865 193.447 63.142 193.063 63.2822C192.083 63.6326 191.104 63.9479 190.16 64.2633C190.09 64.2633 189.985 64.2983 189.916 64.2983ZM126.905 63.107C126.835 63.107 126.765 63.107 126.695 63.0719C125.716 62.8267 124.737 62.5463 123.758 62.3011C123.339 62.1959 123.094 61.7755 123.234 61.355C123.339 60.9345 123.758 60.6892 124.178 60.8294C125.157 61.0747 126.136 61.355 127.115 61.6003C127.535 61.7054 127.779 62.1259 127.675 62.5463C127.57 62.8617 127.255 63.107 126.905 63.107ZM195.685 62.231C195.37 62.231 195.091 62.0558 194.986 61.7404C194.846 61.355 195.021 60.8995 195.405 60.7593C196.349 60.4089 197.294 60.0235 198.203 59.638C198.587 59.4628 199.042 59.6731 199.217 60.0585C199.392 60.4439 199.182 60.8995 198.797 61.0747C197.853 61.4601 196.874 61.8455 195.965 62.231C195.86 62.231 195.755 62.231 195.685 62.231ZM120.996 61.5302C120.926 61.5302 120.856 61.5302 120.786 61.4951C119.807 61.2499 118.828 60.9695 117.849 60.7243C117.429 60.6191 117.184 60.1987 117.289 59.7782C117.394 59.3577 117.814 59.1124 118.234 59.2175C119.213 59.4628 120.192 59.7431 121.171 59.9884C121.59 60.0935 121.835 60.514 121.73 60.9345C121.66 61.3199 121.346 61.5302 120.996 61.5302ZM115.121 59.9884C115.052 59.9884 114.982 59.9884 114.947 59.9534C113.968 59.7081 112.988 59.4628 112.009 59.2175C111.59 59.1124 111.345 58.6919 111.45 58.3065C111.555 57.886 111.974 57.6407 112.359 57.7459C113.338 57.9911 114.352 58.2364 115.331 58.4817C115.751 58.5868 115.996 59.0073 115.891 59.4278C115.751 59.7782 115.436 59.9884 115.121 59.9884ZM201.28 59.8833C201 59.8833 200.72 59.7081 200.58 59.4278C200.406 59.0423 200.58 58.5868 200.965 58.4116C201.874 57.9911 202.818 57.5707 203.692 57.1151C204.077 56.9399 204.532 57.0801 204.707 57.4655C204.881 57.851 204.741 58.3065 204.357 58.4817C203.448 58.9372 202.504 59.3577 201.56 59.7782C201.525 59.8483 201.385 59.8833 201.28 59.8833ZM109.177 58.5518C109.107 58.5518 109.072 58.5518 109.002 58.5167C108.023 58.2715 107.044 58.0612 106.03 57.851C105.61 57.7459 105.366 57.3604 105.436 56.9399C105.541 56.5195 105.925 56.2742 106.345 56.3443C107.359 56.5545 108.338 56.7998 109.317 57.01C109.737 57.1151 109.981 57.5006 109.876 57.9211C109.841 58.3065 109.527 58.5518 109.177 58.5518ZM103.233 57.2553C103.198 57.2553 103.128 57.2553 103.093 57.2553C102.079 57.0451 101.1 56.8699 100.121 56.6947C99.7011 56.6246 99.4213 56.2391 99.4913 55.8187C99.5612 55.3982 99.9458 55.1179 100.365 55.1879C101.345 55.3631 102.359 55.5383 103.373 55.7486C103.792 55.8187 104.072 56.2391 103.967 56.6596C103.897 57.01 103.582 57.2553 103.233 57.2553ZM206.77 57.1852C206.49 57.1852 206.245 57.0451 206.105 56.7647C205.895 56.3793 206.07 55.9238 206.42 55.7486C207.329 55.2931 208.203 54.8025 209.077 54.3119C209.462 54.1017 209.917 54.2419 210.126 54.5923C210.336 54.9777 210.196 55.4332 209.847 55.6435C208.972 56.134 208.063 56.6246 207.154 57.1151C207.014 57.1502 206.909 57.1852 206.77 57.1852ZM69.8743 56.5545C69.5247 56.5545 69.21 56.3092 69.14 55.9588C69.0351 55.5383 69.3149 55.1529 69.7345 55.0478C70.7485 54.8375 71.7626 54.6273 72.7766 54.4871C73.1962 54.4171 73.5808 54.6974 73.6508 55.1179C73.7207 55.5383 73.441 55.9238 73.0214 55.9939C72.0423 56.1691 71.0632 56.3443 70.0492 56.5545C69.9792 56.5545 69.9443 56.5545 69.8743 56.5545ZM97.2184 56.2041C97.1835 56.2041 97.1485 56.2041 97.1135 56.2041C96.0995 56.0639 95.0854 55.9238 94.1064 55.8187C93.6868 55.7836 93.407 55.3982 93.442 54.9777C93.477 54.5572 93.8616 54.2419 94.2812 54.3119C95.2603 54.4171 96.3093 54.5572 97.3233 54.7324C97.7429 54.8025 98.0227 55.1879 97.9527 55.6084C97.9178 55.9588 97.5681 56.2041 97.2184 56.2041ZM75.9236 55.5734C75.539 55.5734 75.2243 55.2931 75.1543 54.9076C75.1194 54.4871 75.3991 54.1017 75.8187 54.0667C76.8327 53.9615 77.8468 53.8564 78.8958 53.7863C79.3154 53.7513 79.6651 54.0667 79.7 54.4871C79.735 54.9076 79.4203 55.258 79.0007 55.2931C77.9867 55.3631 76.9726 55.4332 75.9935 55.5383C75.9586 55.5734 75.9236 55.5734 75.9236 55.5734ZM91.1342 55.5033C91.0992 55.5033 91.0992 55.5033 91.0643 55.5033C90.0502 55.3982 89.0362 55.3281 88.0571 55.2931C87.6375 55.258 87.3228 54.9076 87.3228 54.4871C87.3578 54.0667 87.7074 53.7513 88.127 53.7513C89.1411 53.8214 90.1551 53.8915 91.2041 53.9615C91.6237 53.9966 91.9384 54.382 91.9035 54.8025C91.8685 55.1879 91.5538 55.5033 91.1342 55.5033ZM82.0078 55.1879C81.5882 55.1879 81.2386 54.8726 81.2386 54.4521C81.2386 54.0316 81.5533 53.6812 81.9729 53.6812C82.9869 53.6462 84.0359 53.6462 85.05 53.6812C85.4696 53.6812 85.8192 54.0316 85.7843 54.4521C85.7843 54.8726 85.4346 55.223 85.015 55.1879C84.0359 55.1529 83.0219 55.1529 82.0078 55.1879ZM212.12 54.2068C211.875 54.2068 211.595 54.0667 211.455 53.8214C211.245 53.471 211.35 52.9804 211.735 52.7702C212.609 52.2446 213.448 51.719 214.322 51.1934C214.672 50.9831 215.162 51.0883 215.371 51.4387C215.581 51.7891 215.476 52.2796 215.127 52.4899C214.252 53.0505 213.378 53.5761 212.504 54.1017C212.364 54.1718 212.259 54.2068 212.12 54.2068ZM217.26 50.9481C217.015 50.9481 216.77 50.843 216.63 50.5977C216.385 50.2473 216.49 49.7567 216.84 49.5465C217.679 48.9859 218.518 48.3902 219.323 47.8295C219.672 47.5843 220.127 47.6543 220.372 48.0047C220.616 48.3551 220.547 48.8107 220.197 49.0559C219.358 49.6516 218.518 50.2473 217.679 50.8079C217.574 50.9131 217.434 50.9481 217.26 50.9481ZM222.26 47.4091C222.015 47.4091 221.805 47.3039 221.665 47.0937C221.421 46.7433 221.491 46.2878 221.805 46.0075C222.61 45.4118 223.414 44.7811 224.218 44.1503C224.533 43.9051 225.022 43.9401 225.302 44.2555C225.582 44.5708 225.512 45.0614 225.197 45.3417C224.393 45.9724 223.589 46.6031 222.749 47.2339C222.575 47.339 222.4 47.4091 222.26 47.4091Z" fill="#F24941"/>
<path d="M227.05 43.5547C226.84 43.5547 226.631 43.4496 226.456 43.2744C226.176 42.959 226.211 42.4685 226.561 42.1882C226.945 41.8728 227.33 41.5224 227.715 41.207C228.029 40.9267 228.519 40.9618 228.799 41.2771C229.078 41.5925 229.043 42.083 228.729 42.3634C228.344 42.7138 227.959 43.0291 227.575 43.3795C227.4 43.5197 227.225 43.5547 227.05 43.5547Z" fill="#F24941"/>
<path d="M135.017 206C209.309 206 269.535 201.827 269.535 196.679C269.535 191.532 209.309 187.359 135.017 187.359C60.7255 187.359 0.5 191.532 0.5 196.679C0.5 201.827 60.7255 206 135.017 206Z" fill="#F2F2F2"/>
<path d="M68.6504 191.984C68.6504 191.984 64.6992 152.284 12.4237 150.076C11.1649 150.006 10.1858 151.197 10.5005 152.459C13.2629 163.567 27.1448 207.927 68.6504 191.984Z" fill="#00A7CD"/>
<path d="M54.8035 189.321C54.6636 189.321 54.5238 189.251 54.4538 189.111C54.3489 188.865 43.1945 164.302 17.4239 155.227C17.2141 155.157 17.1092 154.947 17.1792 154.737C17.2491 154.526 17.4589 154.421 17.6687 154.491C43.719 163.672 55.0133 188.515 55.1182 188.76C55.1881 188.936 55.1182 189.181 54.9084 189.251C54.9084 189.321 54.8385 189.321 54.8035 189.321Z" fill="white"/>
<g opacity="0.1">
<path opacity="0.1" d="M59.9436 188.06C59.9436 188.06 61.9367 178.879 57.2862 168.367C51.132 161.499 41.656 155.017 27.1797 151.898C27.4944 164.968 31.7254 189.496 59.9436 188.06Z" fill="black"/>
</g>
<path d="M55.1183 178.564C54.8036 178.564 54.5588 178.318 54.5588 178.003C54.5588 177.898 54.384 167.071 50.5026 153.02C46.901 140.09 39.3482 121.729 23.6131 107.713C23.3684 107.503 23.3684 107.152 23.5782 106.907C23.788 106.662 24.1376 106.662 24.3824 106.872C40.3273 121.098 48.02 139.704 51.6216 152.774C55.5379 166.93 55.7127 177.898 55.7127 178.003C55.7127 178.318 55.433 178.564 55.1183 178.564Z" fill="#00A7CD"/>
<path d="M63.3355 184.591C63.0558 184.591 62.846 184.415 62.776 184.135C62.7411 184.03 60.6081 173.413 54.2092 160.343C48.2998 148.289 37.495 131.645 19.4521 120.748C19.1724 120.573 19.1024 120.222 19.2423 119.977C19.4171 119.697 19.7668 119.626 20.0116 119.767C38.2992 130.839 49.2788 147.658 55.2232 159.852C61.6921 173.062 63.86 183.785 63.86 183.89C63.9299 184.205 63.7201 184.485 63.4054 184.555C63.4054 184.591 63.3705 184.591 63.3355 184.591Z" fill="#00A7CD"/>
<path d="M65.6432 188.059C65.6432 188.059 72.0771 158.556 34.9773 144.645C34.0681 144.295 33.0891 144.925 33.0541 145.906C32.4596 154.561 32.04 189.776 65.6432 188.059Z" fill="#F24941"/>
<g opacity="0.1">
<path opacity="0.1" d="M65.6433 188.059C65.6433 188.059 70.9932 163.496 43.754 148.64V181.437C48.6494 185.817 55.6428 188.585 65.6433 188.059Z" fill="black"/>
</g>
<path d="M212.05 195.173C212.05 195.173 196.629 147.623 255.443 118.68C256.877 117.98 258.555 118.856 258.835 120.432C261.248 134.553 267.717 192.475 212.05 195.173Z" fill="#F24941"/>
<path d="M220.511 184.976C220.476 184.976 220.441 184.976 220.406 184.976C220.197 184.941 220.092 184.731 220.127 184.52C220.162 184.415 223.099 172.712 228.554 159.712C233.554 147.658 241.771 131.996 252.436 125.688C252.611 125.583 252.856 125.653 252.961 125.829C253.066 126.004 252.996 126.249 252.821 126.354C232.75 138.233 221.001 184.24 220.896 184.731C220.826 184.871 220.686 184.976 220.511 184.976Z" fill="white"/>
<g opacity="0.1">
<path opacity="0.1" d="M219.218 194.297C257.052 179.86 241.841 142.297 236.072 130.769C222.924 141.246 216.211 152.704 212.959 163.076C209.916 181.507 219.218 194.297 219.218 194.297Z" fill="black"/>
</g>
<path d="M205.476 178.494C205.441 178.494 205.441 178.494 205.406 178.494C205.091 178.459 204.881 178.178 204.916 177.863C204.916 177.758 206.455 166.09 211.175 150.952C215.546 136.971 223.658 117.104 237.47 101.756C237.68 101.511 238.03 101.511 238.275 101.721C238.519 101.931 238.519 102.282 238.31 102.527C224.672 117.699 216.63 137.427 212.259 151.268C207.539 166.3 206.035 177.898 206.035 178.003C206 178.283 205.755 178.494 205.476 178.494Z" fill="#FF667C"/>
<path d="M213.518 194.297C213.518 194.297 191.244 163.707 226.84 128.982C227.715 128.141 229.148 128.386 229.708 129.438C234.743 139.039 252.961 179.229 213.518 194.297Z" fill="#00A7CD"/>
<g opacity="0.1">
<path opacity="0.1" d="M213.518 194.297C218.693 192.334 222.889 189.917 226.246 187.183V129.613C191.524 164.057 213.518 194.297 213.518 194.297Z" fill="black"/>
</g>
<path d="M219.183 83.9208H50.7124L135.017 151.057L219.183 83.9208Z" fill="#00A7CD"/>
<path d="M50.0131 84.166H219.952L137.15 30.3796C135.857 29.5387 134.178 29.5387 132.885 30.3796L50.0131 84.166Z" fill="#00C1ED"/>
<path d="M174.355 37.5979H72.4968C71.0631 37.5979 69.8743 38.7893 69.8743 40.2259V162.235H200.126V63.4224L174.355 37.5979Z" fill="#F2F2F2"/>
<path d="M98.5121 76.4572H171.523C172.607 76.4572 173.481 75.5812 173.481 74.495C173.481 73.4087 172.607 72.5327 171.523 72.5327H98.5121C97.4281 72.5327 96.554 73.4087 96.554 74.495C96.554 75.5812 97.4281 76.4572 98.5121 76.4572Z" fill="#00A7CD"/>
<path d="M171.523 87.5298H98.5121C97.4281 87.5298 96.554 88.4058 96.554 89.492C96.554 90.5783 97.4281 91.4543 98.5121 91.4543H171.523C172.607 91.4543 173.481 90.5783 173.481 89.492C173.481 88.4058 172.607 87.5298 171.523 87.5298Z" fill="#00A7CD"/>
<path d="M140.088 102.527H98.5121C97.4281 102.527 96.554 103.403 96.554 104.489C96.554 105.575 97.4281 106.451 98.5121 106.451H140.088C141.172 106.451 142.046 105.575 142.046 104.489C142.046 103.438 141.172 102.527 140.088 102.527Z" fill="#00A7CD"/>
<g opacity="0.05">
<path opacity="0.05" d="M121.206 142.648L133.059 138.022L51.7964 84.166L121.206 142.648Z" fill="black"/>
</g>
<g opacity="0.05">
<path opacity="0.05" d="M136.941 138.022L148.794 142.648L218.204 84.166L136.941 138.022Z" fill="black"/>
</g>
<path d="M135.018 145.871L51.5867 84.166C50.7125 83.5352 49.4886 84.1309 49.4886 85.2172V188.13C49.4886 192.475 53.0203 196.014 57.3562 196.014H212.644C216.98 196.014 220.512 192.475 220.512 188.13V85.2172C220.512 84.1309 219.288 83.5352 218.413 84.166L135.018 145.871Z" fill="#00C1ED"/>
<g opacity="0.1">
<path opacity="0.1" d="M119.247 134.203L52.0411 193.946C53.4398 195.243 55.2931 196.014 57.3561 196.014H132.85V144.295L119.247 134.203Z" fill="black"/>
</g>
<g opacity="0.1">
<path opacity="0.1" d="M150.788 134.203L217.994 193.946C216.595 195.243 214.742 196.014 212.679 196.014H137.185V144.295L150.788 134.203Z" fill="black"/>
</g>
<path d="M52.0411 193.946C53.4398 195.243 55.2931 196.014 57.3561 196.014H212.644C214.707 196.014 216.56 195.243 217.959 193.946L139.983 130.244C137.081 127.896 132.954 127.896 130.052 130.244L52.0411 193.946Z" fill="#00A7CD"/>
<path d="M174.355 37.5979L172.327 63.0019C172.187 64.6137 173.551 65.9803 175.194 65.8051L200.126 63.3873L174.355 37.5979Z" fill="#CCCCCC"/>
<path d="M176.978 63.4224H200.126L174.355 37.5979V60.7944C174.355 62.231 175.544 63.4224 176.978 63.4224Z" fill="#E6E6E6"/>
<path d="M199.566 170.681C202.399 163.638 210.406 160.274 217.399 163.217C222.085 165.179 226.98 167.282 231.316 170.12C235.827 173.063 239.079 177.478 243.59 180.387C246.632 182.349 250.338 183.68 252.751 186.519C255.129 189.322 256.003 194.928 251.492 196.049H194.706C192.188 196.049 190.475 193.492 191.384 191.144L199.566 170.681Z" fill="#E6E6E6"/>
<g opacity="0.3">
<path opacity="0.3" d="M252.751 186.483C250.338 183.644 246.632 182.313 243.59 180.351C239.079 177.477 235.827 173.027 231.316 170.084C226.98 167.246 222.12 165.143 217.399 163.181C213.728 161.639 209.777 161.85 206.455 163.391C211.001 165.319 215.686 167.351 219.882 170.084C224.393 173.027 227.645 177.442 232.155 180.351C235.198 182.313 238.904 183.644 241.317 186.483C243.695 189.286 244.569 194.892 240.058 196.014H251.492C256.003 194.892 255.129 189.286 252.751 186.483Z" fill="#B3B3B3"/>
</g>
<path d="M207.609 170.68C208.168 170.68 208.763 170.645 209.392 170.575C214.987 170.014 218.169 167.386 221.246 164.828C220.896 164.653 220.511 164.513 220.162 164.337C217.329 166.685 214.322 168.998 209.287 169.488C205.895 169.804 203.483 169.208 202.119 167.631C201.944 167.456 201.839 167.246 201.699 167.071C201.455 167.351 201.245 167.666 201.035 167.982C201.14 168.087 201.21 168.227 201.315 168.332C202.643 169.909 204.741 170.68 207.609 170.68Z" fill="#CCCCCC"/>
<path d="M201.874 180.771C205.895 183.574 211.14 184.24 217.365 182.803C229.953 179.895 236.421 178.949 245.967 181.752C245.128 181.297 244.324 180.841 243.555 180.351C243.275 180.175 242.995 179.965 242.715 179.79C234.778 178.073 228.344 179.159 217.12 181.752C211.175 183.119 206.245 182.488 202.469 179.895C200.406 178.459 198.937 176.601 197.888 174.814L197.398 176.076C198.482 177.758 199.916 179.44 201.874 180.771Z" fill="#CCCCCC"/>
<path d="M227.54 191.563C213.448 193.526 200.266 189.321 193.272 186.413L192.888 187.394C200.021 190.337 213.378 194.577 227.715 192.615C233.169 191.844 237.715 193 241.212 195.943L241.247 195.979H242.82C242.506 195.698 242.226 195.383 241.876 195.103C238.135 191.984 233.309 190.758 227.54 191.563Z" fill="#CCCCCC"/>
<path d="M63.9999 58.1664C63.6852 58.1664 63.3705 57.9561 63.2656 57.6408C63.1257 57.2553 63.3705 56.7998 63.7551 56.6947C64.2447 56.5195 64.7342 56.3793 65.2237 56.2392C65.6433 56.1341 66.0629 56.3443 66.1678 56.7648C66.2727 57.1853 66.0629 57.6057 65.6433 57.7109C65.1538 57.851 64.6992 57.9912 64.2097 58.1664C64.1747 58.1313 64.0698 58.1664 63.9999 58.1664Z" fill="#F24941"/>
<path d="M96.0644 114.616C95.6798 114.616 95.3651 114.335 95.2952 113.95C95.1553 112.829 95.0154 111.848 94.8756 110.937C94.8056 110.516 95.0854 110.131 95.505 110.061C95.9246 109.99 96.3092 110.271 96.3792 110.691C96.554 111.637 96.6939 112.654 96.8337 113.775C96.8687 114.195 96.589 114.581 96.1694 114.616C96.0994 114.616 96.0644 114.616 96.0644 114.616ZM95.0154 108.519C94.6658 108.519 94.3511 108.274 94.2811 107.923C94.0364 106.907 93.7566 105.926 93.4419 105.015C93.3021 104.629 93.5119 104.174 93.9315 104.034C94.3161 103.894 94.7707 104.104 94.9105 104.524C95.2253 105.47 95.54 106.486 95.7847 107.573C95.8896 107.993 95.6448 108.379 95.2252 108.484C95.1203 108.519 95.0504 108.519 95.0154 108.519ZM48.8942 108.484C47.9501 108.484 47.006 108.414 46.1318 108.238C45.7122 108.168 45.4325 107.783 45.5024 107.362C45.5723 106.942 45.957 106.662 46.3766 106.732C47.3207 106.907 48.2997 106.977 49.2788 106.942C49.6984 106.907 50.0481 107.257 50.0481 107.678C50.0481 108.098 49.7334 108.449 49.3138 108.449C49.1739 108.484 49.034 108.484 48.8942 108.484ZM52.3559 108.133C52.0062 108.133 51.6915 107.888 51.6216 107.503C51.5517 107.082 51.7964 106.697 52.216 106.592C53.1601 106.416 54.1042 106.171 55.0833 105.821C55.468 105.681 55.9225 105.891 56.0624 106.311C56.2023 106.697 55.9925 107.152 55.5729 107.292C54.5238 107.643 53.5098 107.923 52.4958 108.098C52.4608 108.133 52.4258 108.133 52.3559 108.133ZM43.2995 107.398C43.1946 107.398 43.0897 107.362 43.0198 107.327C42.6002 107.152 42.2155 106.977 41.8309 106.767C41.2714 106.487 40.7119 106.136 40.1874 105.786C39.8378 105.54 39.7678 105.085 39.9776 104.734C40.2224 104.384 40.677 104.314 41.0266 104.524C41.5162 104.84 42.0057 105.155 42.4953 105.435C42.8449 105.61 43.1946 105.786 43.5792 105.926C43.9639 106.101 44.1387 106.522 43.9988 106.907C43.859 107.222 43.5792 107.398 43.2995 107.398ZM58.1954 106.206C57.9156 106.206 57.6359 106.031 57.496 105.751C57.3212 105.365 57.496 104.91 57.8807 104.734C58.7548 104.349 59.629 103.894 60.5032 103.368L60.5381 103.333C60.8878 103.123 61.3773 103.263 61.5871 103.613C61.7969 103.964 61.6571 104.454 61.3074 104.664L61.2375 104.699C60.3283 105.225 59.4192 105.716 58.5101 106.136C58.4401 106.206 58.3003 106.206 58.1954 106.206ZM38.2643 103.929C38.0545 103.929 37.8796 103.858 37.7048 103.683C36.9705 102.912 36.3061 102.071 35.7117 101.16C35.4669 100.81 35.5718 100.319 35.9565 100.109C36.3061 99.8639 36.7957 99.9691 37.0055 100.354C37.53 101.195 38.1594 101.966 38.8237 102.667C39.1035 102.983 39.1035 103.473 38.7888 103.753C38.6489 103.859 38.4391 103.929 38.2643 103.929ZM63.5803 103.193C63.3355 103.193 63.0907 103.053 62.9159 102.842C62.7061 102.492 62.811 102.001 63.1607 101.791C63.5803 101.546 63.9999 101.266 64.3845 101.02C64.8391 100.74 65.2936 100.46 65.7832 100.179C66.1328 99.9691 66.6224 100.074 66.8322 100.425C67.042 100.775 66.9371 101.266 66.5874 101.476C66.1328 101.756 65.6783 102.036 65.2237 102.317C64.8041 102.562 64.3845 102.842 63.9999 103.088C63.86 103.158 63.7201 103.193 63.5803 103.193ZM92.9874 102.702C92.7076 102.702 92.4279 102.527 92.288 102.282C92.2181 102.142 92.1482 102.001 92.0782 101.861C91.6936 101.125 91.274 100.46 90.7495 99.8289C90.4698 99.5135 90.5397 99.023 90.8544 98.7427C91.1691 98.4623 91.6586 98.5324 91.9384 98.8478C92.5328 99.5486 93.0223 100.319 93.4419 101.125C93.5119 101.266 93.5818 101.441 93.6867 101.581C93.8615 101.966 93.7217 102.422 93.337 102.597C93.2321 102.667 93.0923 102.702 92.9874 102.702ZM68.8602 100.004C68.5805 100.004 68.3358 99.8639 68.1959 99.6187C67.9861 99.2683 68.1259 98.7777 68.4756 98.5675C69.4547 98.0068 70.3638 97.5163 71.238 97.0958C71.6226 96.9206 72.0772 97.0607 72.252 97.4462C72.4269 97.8316 72.287 98.2871 71.9024 98.4623C71.0632 98.8828 70.189 99.3383 69.2449 99.899C69.105 99.9691 68.9651 100.004 68.8602 100.004ZM34.9424 98.7777C34.6277 98.7777 34.348 98.6025 34.2431 98.3222C33.8235 97.3411 33.5088 96.3249 33.264 95.2737C33.1591 94.8532 33.4388 94.4678 33.8235 94.3627C34.2431 94.2575 34.6277 94.5379 34.7326 94.9233C34.9424 95.9044 35.2571 96.8505 35.6418 97.7265C35.8166 98.1119 35.6068 98.5675 35.2221 98.7427C35.1172 98.7427 35.0123 98.7777 34.9424 98.7777ZM89.106 98.0068C88.9662 98.0068 88.7914 97.9718 88.6515 97.8667C87.8822 97.306 87.008 96.8505 86.0989 96.5001C85.7143 96.3599 85.5045 95.9044 85.6443 95.519C85.7842 95.1335 86.2388 94.9233 86.6234 95.0635C87.6374 95.4489 88.6165 95.9745 89.5257 96.6052C89.8753 96.8505 89.9453 97.3411 89.7005 97.6564C89.5606 97.9017 89.3508 98.0068 89.106 98.0068ZM74.385 97.271C74.0703 97.271 73.7906 97.0958 73.6857 96.7804C73.5458 96.395 73.7206 95.9395 74.1053 95.7993C75.1193 95.4139 76.1334 95.0635 77.1124 94.8182C77.532 94.7131 77.9516 94.9583 78.0565 95.3788C78.1614 95.7993 77.9167 96.2198 77.4971 96.3249C76.5879 96.5702 75.6089 96.8855 74.6647 97.2359C74.5598 97.271 74.4549 97.271 74.385 97.271ZM83.4065 95.8343C83.3715 95.8343 83.3365 95.8343 83.3016 95.8343C82.3575 95.7292 81.3784 95.6942 80.3993 95.7993C79.9797 95.8343 79.5951 95.519 79.5601 95.0985C79.5251 94.678 79.8398 94.2926 80.2594 94.2575C81.3434 94.1524 82.4274 94.1875 83.5114 94.2926C83.931 94.3627 84.2107 94.7131 84.1757 95.1335C84.1058 95.554 83.7911 95.8343 83.4065 95.8343ZM33.5437 92.7859C33.1591 92.7859 32.8094 92.4705 32.7745 92.0851C32.7395 91.6996 32.7395 91.3142 32.7395 90.9287C32.7395 90.2279 32.7745 89.5622 32.8444 88.8614C32.8794 88.4409 33.264 88.1255 33.6836 88.1956C34.1032 88.2307 34.4179 88.6161 34.348 89.0366C34.278 89.6673 34.2431 90.298 34.2431 90.9287C34.2431 91.2791 34.2431 91.6295 34.278 92.015C34.313 92.4355 33.9983 92.7859 33.5787 92.8209C33.5787 92.7859 33.5437 92.7859 33.5437 92.7859ZM34.1382 86.6539C34.0682 86.6539 34.0333 86.6539 33.9633 86.6188C33.5437 86.5137 33.299 86.1283 33.4039 85.7078C33.6486 84.6916 33.9284 83.6755 34.2431 82.6593C34.3829 82.2739 34.8025 82.0286 35.2221 82.1688C35.6068 82.3089 35.8516 82.7294 35.7117 83.1499C35.397 84.096 35.1172 85.0771 34.9074 86.0582C34.8025 86.4436 34.4878 86.6539 34.1382 86.6539ZM36.0963 80.8372C35.9914 80.8372 35.8865 80.8022 35.7816 80.7672C35.397 80.592 35.2221 80.1364 35.397 79.751C35.8166 78.8049 36.3061 77.8588 36.8306 76.9478C37.0404 76.5974 37.495 76.4572 37.8796 76.6675C38.2293 76.8777 38.3692 77.3332 38.1594 77.7187C37.6698 78.5947 37.2153 79.5057 36.7957 80.4168C36.6558 80.662 36.3761 80.8372 36.0963 80.8372ZM39.1035 75.4761C38.9636 75.4761 38.7888 75.4411 38.6839 75.336C38.3342 75.0907 38.2643 74.6352 38.509 74.2848C39.1035 73.4438 39.7329 72.6028 40.3972 71.7619C40.677 71.4465 41.1315 71.3764 41.4812 71.6568C41.7959 71.9371 41.8658 72.3926 41.5861 72.743C40.9567 73.5139 40.3273 74.3198 39.7678 75.1608C39.593 75.336 39.3482 75.4761 39.1035 75.4761ZM43.0547 70.7107C42.8799 70.7107 42.6701 70.6406 42.5302 70.5004C42.2155 70.2201 42.2155 69.7296 42.5302 69.4142C43.2645 68.6784 43.9988 67.9425 44.8031 67.2417C45.1178 66.9614 45.6073 66.9964 45.887 67.3118C46.1668 67.6272 46.1318 68.1177 45.8171 68.398C45.0478 69.0638 44.3135 69.7646 43.6142 70.5004C43.4394 70.6406 43.2296 70.7107 43.0547 70.7107ZM47.6703 66.611C47.4256 66.611 47.2158 66.5059 47.0759 66.2956C46.8311 65.9452 46.8661 65.4897 47.2158 65.2094C48.02 64.5787 48.8942 63.983 49.7684 63.3873C50.118 63.142 50.6076 63.2472 50.8174 63.5976C51.0621 63.948 50.9572 64.4385 50.6076 64.6488C49.7684 65.2094 48.9292 65.8051 48.1599 66.4358C47.985 66.576 47.8102 66.611 47.6703 66.611ZM52.7755 63.1771C52.5307 63.1771 52.251 63.0369 52.1111 62.7916C51.9013 62.4412 52.0062 61.9507 52.3909 61.7404C53.265 61.2148 54.2091 60.7243 55.1183 60.2337C55.5029 60.0235 55.9575 60.1987 56.1323 60.5491C56.3072 60.9345 56.1673 61.39 55.8176 61.5652C54.9085 62.0208 53.9993 62.5113 53.1601 63.0369C53.0203 63.142 52.9154 63.1771 52.7755 63.1771ZM58.2653 60.3739C57.9856 60.3739 57.7058 60.1987 57.566 59.9184C57.3911 59.5329 57.566 59.0774 57.9506 58.9022C58.8947 58.4817 59.8738 58.0963 60.8179 57.7108C61.2025 57.5707 61.6571 57.7459 61.7969 58.1664C61.9368 58.5518 61.762 59.0073 61.3424 59.1475C60.3983 59.4979 59.4542 59.9184 58.545 60.3038C58.4751 60.3389 58.3702 60.3739 58.2653 60.3739Z" fill="#F24941"/>
<path d="M96.519 119.206C96.1343 119.206 95.7847 118.926 95.7497 118.505L95.6098 116.999C95.5749 116.578 95.8896 116.193 96.3092 116.158C96.7288 116.123 97.1134 116.438 97.1484 116.858L97.2882 118.365C97.3232 118.786 97.0085 119.171 96.5889 119.206C96.5889 119.206 96.5539 119.206 96.519 119.206Z" fill="#F24941"/>
<path d="M222.05 22.2854L257.856 0L246.212 31.8864L222.05 22.2854Z" fill="#F24941"/>
<path d="M231.911 38.1586L240.687 29.6789L237.435 28.4175L231.911 38.1586Z" fill="#D20A00"/>
<path d="M229.043 25.0886L231.911 38.1585L237.435 28.4174L257.856 0L229.043 25.0886Z" fill="#D20A00"/>
<path d="M68.7553 32.2718C68.056 32.2718 67.3916 31.8864 67.0419 31.2206L61.2025 19.7976C60.7129 18.8515 61.0976 17.6952 62.0417 17.2397C62.9858 16.7491 64.1397 17.1345 64.5943 18.0806L70.4337 29.4686C70.9233 30.4147 70.5386 31.571 69.5945 32.0265C69.3497 32.2017 69.035 32.2718 68.7553 32.2718Z" fill="#00BFEB"/>
<path d="M62.8809 39.1046C62.6711 39.1046 62.4962 39.0696 62.2864 38.9995L50.083 35.075C49.069 34.7597 48.5444 33.6734 48.8591 32.6573C49.1739 31.6411 50.2578 31.1155 51.2719 31.4309L63.4753 35.3554C64.4893 35.6707 65.0138 36.757 64.6991 37.7731C64.4194 38.579 63.6851 39.1046 62.8809 39.1046Z" fill="#00BFEB"/>
</g>
<defs>
<clipPath id="clip0_72_4444">
<rect width="269" height="206" fill="white" transform="translate(0.5)"/>
</clipPath>
</defs>
</svg>
