<svg width="37" height="23" viewBox="0 0 37 23" fill="none" xmlns="http://www.w3.org/2000/svg">
<path d="M23.151 3.02124H13.5576V20.4166H23.151V3.02124Z" fill="#FF5F00"/>
<path d="M14.1666 11.7215C14.1649 10.0459 14.541 8.39195 15.2665 6.88478C15.992 5.37762 17.0479 4.05677 18.3542 3.02227C16.7368 1.73973 14.7944 0.942201 12.7489 0.720822C10.7035 0.499443 8.63762 0.863148 6.78737 1.77037C4.93712 2.67759 3.37717 4.09173 2.28579 5.85116C1.19442 7.61058 0.615662 9.64432 0.615662 11.7199C0.615662 13.7955 1.19442 15.8293 2.28579 17.5887C3.37717 19.3481 4.93712 20.7623 6.78737 21.6695C8.63762 22.5767 10.7035 22.9404 12.7489 22.719C14.7944 22.4976 16.7368 21.7001 18.3542 20.4176C17.0483 19.3834 15.9927 18.063 15.2672 16.5564C14.5417 15.0498 14.1653 13.3965 14.1666 11.7215Z" fill="#EB001B"/>
<path d="M36.0944 11.7205C36.0943 13.7963 35.5154 15.8302 34.4239 17.5897C33.3323 19.3491 31.7721 20.7633 29.9216 21.6704C28.0711 22.5774 26.0051 22.9409 23.9595 22.7192C21.914 22.4975 19.9715 21.6996 18.3542 20.4167C19.6596 19.3816 20.7149 18.0608 21.4406 16.5542C22.1663 15.0475 22.5434 13.3942 22.5434 11.719C22.5434 10.0438 22.1663 8.39054 21.4406 6.88385C20.7149 5.37717 19.6596 4.05645 18.3542 3.02135C19.9715 1.73841 21.914 0.940494 23.9595 0.718797C26.0051 0.4971 28.0711 0.860571 29.9216 1.76766C31.7721 2.67476 33.3323 4.08887 34.4239 5.84836C35.5154 7.60785 36.0943 9.64171 36.0944 11.7175V11.7205Z" fill="#F79E1B"/>
<path d="M35.0467 18.573V18.2166H35.1898V18.1428H34.8274V18.2166H34.9827V18.573H35.0467ZM35.7502 18.573V18.1428H35.6405L35.5126 18.4501L35.3847 18.1428H35.2873V18.573H35.3664V18.2504L35.4852 18.53H35.5674L35.6862 18.2504V18.5761L35.7502 18.573Z" fill="#F79E1B"/>
</svg>
