<svg width="74" height="21" viewBox="0 0 74 21" fill="none" xmlns="http://www.w3.org/2000/svg">
<g clip-path="url(#clip0_72_516)">
<path d="M52.7042 9.97217V20.9999H59.2509V14.7968H65.8396C69.2808 14.7968 72.2184 12.7937 73.3515 9.97217H52.7042V9.97217Z" fill="#006848"/>
<path d="M52.4106 0C52.4316 0.56 52.5155 1.12 52.6414 1.63692C52.6624 1.74462 52.7043 1.87385 52.7253 1.98154C52.7463 2.02462 52.7463 2.06769 52.7673 2.13231C53.9423 5.94462 57.4046 8.70154 61.4962 8.70154H73.5825C73.6664 8.27077 73.7084 7.84 73.7084 7.38769C73.7084 5.23385 72.8061 3.29538 71.3583 1.93846C70.0783 0.732308 68.3787 0 66.4902 0H52.4106V0Z" fill="url(#paint0_linear_72_516)"/>
<path d="M41.1007 2.21846L36.5264 12.4062H36.0647V0H29.56V21H35.0785C36.5264 21 37.8483 20.1385 38.4568 18.7815L43.0311 8.59385H43.4927V21H49.9975V0H44.4789C43.0311 0 41.7092 0.861538 41.1007 2.21846Z" fill="#006848"/>
<path d="M10.7802 2.75692L13.508 12.4062H13.9696L16.6764 2.75692C17.138 1.12 18.5859 0 20.2435 0H26.7483V21H20.2435V8.59385H19.7819L16.0469 21H11.4097L7.67468 8.59385H7.21305V21H0.708313V0H7.21305C8.87071 0 10.3185 1.12 10.7802 2.75692Z" fill="#006848"/>
</g>
<defs>
<linearGradient id="paint0_linear_72_516" x1="52.407" y1="4.35342" x2="73.702" y2="4.35342" gradientUnits="userSpaceOnUse">
<stop stop-color="#02AFFF"/>
<stop offset="1" stop-color="#1F5BDE"/>
</linearGradient>
<clipPath id="clip0_72_516">
<rect width="73" height="21" fill="white" transform="translate(0.708313)"/>
</clipPath>
</defs>
</svg>
