<svg width="52" height="33" viewBox="0 0 52 33" fill="none" xmlns="http://www.w3.org/2000/svg">
<g clip-path="url(#clip0_72_512)">
<path d="M51.7083 0.5H0.708313V32.5H51.7083V0.5Z" fill="white"/>
<path d="M50.3663 27.167H2.05029V31.167H50.3663V27.167Z" fill="#F7B600"/>
<path d="M50.3663 1.83301H2.05029V5.83301H50.3663V1.83301ZM21.2913 10.515L16.2013 22.516H12.8763L10.3703 12.94C10.2183 12.35 10.0853 12.134 9.62329 11.885C8.63621 11.4196 7.59578 11.0771 6.52529 10.865L6.59829 10.516H11.9373C12.2873 10.516 12.6253 10.638 12.8923 10.863C13.1583 11.087 13.3343 11.398 13.3893 11.74L14.7123 18.685L17.9813 10.516H21.2913V10.515ZM34.3083 18.599C34.3223 15.422 29.8773 15.257 29.9073 13.834C29.9073 13.404 30.3293 12.947 31.2393 12.831C32.3015 12.7296 33.3715 12.9143 34.3383 13.366L34.8893 10.82C33.9479 10.4726 32.9528 10.2932 31.9493 10.29C28.8433 10.29 26.6653 11.921 26.6383 14.258C26.6193 15.985 28.2003 16.947 29.3943 17.523C30.5893 18.1 31.0303 18.49 31.0243 19.014C31.0243 19.819 30.0473 20.176 29.1443 20.189C28.0255 20.2115 26.9193 19.9507 25.9283 19.431L25.3583 22.061C26.0933 22.395 27.4483 22.683 28.8523 22.699C32.1563 22.699 34.3153 21.088 34.3243 18.592L34.3083 18.599ZM42.5303 22.511H45.4363L42.9093 10.51H40.1913C39.9052 10.507 39.6246 10.5892 39.3853 10.746C39.1469 10.9022 38.9612 11.1266 38.8523 11.39L34.1363 22.508H37.4363L38.0923 20.716H42.1233L42.5303 22.51V22.511ZM39.0223 18.258L40.6763 13.752L41.6273 18.258H39.0223ZM25.7983 10.51L23.1933 22.517H20.0413L22.6393 10.517L25.7983 10.51Z" fill="#1A1F71"/>
</g>
<defs>
<clipPath id="clip0_72_512">
<rect width="51" height="32" fill="white" transform="translate(0.708313 0.5)"/>
</clipPath>
</defs>
</svg>
